<svg xmlns="http://www.w3.org/2000/svg" style="display: none;">
  <!-- Définition des symboles pour les icônes IFN -->

  <!-- Icône Vente - Panier avec les couleurs IFN -->
  <symbol id="ifn-icon-sell" viewBox="0 0 24 24">
    <path fill="#F77F00" d="M7 18c-1.1 0-1.99.9-1.99 2S5.9 22 7 22s2-.9 2-2-.9-2-2-2zM1 2v2h2l3.6 7.59-1.35 2.45c-.16.28-.25.61-.25.96 0 1.1.9 2 2 2h12v-2H7.42c-.14 0-.25-.11-.25-.25l.03-.12.9-1.63h7.45c.75 0 1.41-.41 1.75-1.03l3.58-6.49c.08-.14.12-.31.12-.48 0-.55-.45-1-1-1H5.21l-.94-2H1zm16 16c-1.1 0-1.99.9-1.99 2s.89 2 1.99 2 2-.9 2-2-.9-2-2-2z"/>
  </symbol>

  <!-- Icône Stock - Boîte avec les couleurs IFN -->
  <symbol id="ifn-icon-stock" viewBox="0 0 24 24">
    <path fill="#009739" d="M12 2L2 7v10c0 5.55 3.84 10.74 9 12 5.16-1.26 9-6.45 9-12V7l-10-5z"/>
    <path fill="#FFFFFF" opacity="0.9" d="M12 4.5L4.5 8.25v7.5c0 4.13 2.87 7.99 6.75 8.94 3.88-.95 6.75-5.31 6.75-8.94v-7.5L12 4.5z"/>
    <path fill="#009739" d="M9 12h6v2H9v-2zm0-4h6v2H9V8z"/>
  </symbol>

  <!-- Icône Paiement - Carte de crédit avec les couleurs IFN -->
  <symbol id="ifn-icon-payment" viewBox="0 0 24 24">
    <rect fill="#F77F00" x="2" y="4" width="20" height="16" rx="2"/>
    <rect fill="#FFFFFF" x="2" y="10" width="20" height="2"/>
    <rect fill="#FFFFFF" x="4" y="14" width="6" height="2" rx="1"/>
    <circle fill="#FFFFFF" cx="16" cy="16" r="2"/>
  </symbol>

  <!-- Icône Social - Utilisateurs avec les couleurs IFN -->
  <symbol id="ifn-icon-social" viewBox="0 0 24 24">
    <path fill="#009739" d="M16 4c0-1.11.89-2 2-2s2 .89 2 2-.89 2-2 2-2-.89-2-2zm4 18v-6h2.5l-2.5-7.5L17.5 16H20v6h4zM12.5 11.5c.83 0 1.5-.67 1.5-1.5s-.67-1.5-1.5-1.5S11 9.17 11 10s.67 1.5 1.5 1.5zM5.5 6c1.11 0 2-.89 2-2s-.89-2-2-2-2 .89-2 2 .89 2 2 2zm2.5 16v-6H10l-2.5-7.5L5 16h2.5v6h6z"/>
  </symbol>

  <!-- Icône Formation - Livre avec les couleurs IFN -->
  <symbol id="ifn-icon-education" viewBox="0 0 24 24">
    <path fill="#F77F00" d="M21 5c-1.11-.35-2.33-.5-3.5-.5-1.95 0-4.05.4-5.5 1.5-1.45-1.1-3.55-1.5-5.5-1.5S2.45 4.9 1 6v14.65c0 .25.25.5.5.5.1 0 .15-.05.25-.05C3.1 20.45 5.05 20 6.5 20c1.95 0 4.05.4 5.5 1.5 1.35-.85 3.8-1.5 5.5-1.5 1.65 0 3.35.3 4.75 1.05.1.05.15.05.25.05.25 0 .5-.25.5-.5V6c-.6-.45-1.25-.75-2-1zm0 13.5c-1.1-.35-2.3-.5-3.5-.5-1.7 0-4.15.65-5.5 1.5V8c1.35-.85 3.8-1.5 5.5-1.5 1.2 0 2.4.15 3.5.5v11.5z"/>
  </symbol>

  <!-- Icône Accueil - Maison avec les couleurs IFN -->
  <symbol id="ifn-icon-home" viewBox="0 0 24 24">
    <path fill="#F77F00" d="M10 20v-6h4v6h5v-8h3L12 3 2 12h3v8z"/>
  </symbol>

  <!-- Icône Notifications - Cloche avec les couleurs IFN -->
  <symbol id="ifn-icon-notifications" viewBox="0 0 24 24">
    <path fill="#009739" d="M12 22c1.1 0 2-.9 2-2h-4c0 1.1.89 2 2 2zm6-6v-5c0-3.07-1.64-5.64-4.5-6.32V4c0-.83-.67-1.5-1.5-1.5s-1.5.67-1.5 1.5v.68C7.63 5.36 6 7.92 6 11v5l-2 2v1h16v-1l-2-2z"/>
  </symbol>

  <!-- Icône Documents - Dossier avec les couleurs IFN -->
  <symbol id="ifn-icon-documents" viewBox="0 0 24 24">
    <path fill="#F77F00" d="M14 2H6c-1.1 0-2 .9-2 2v16c0 1.1.89 2 1.99 2H18c1.1 0 2-.9 2-2V8l-6-6zm2 16H8v-2h8v2zm0-4H8v-2h8v2zm-3-5V3.5L18.5 9H13z"/>
  </symbol>

  <!-- Icône Paramètres - Engrenage avec les couleurs IFN -->
  <symbol id="ifn-icon-settings" viewBox="0 0 24 24">
    <path fill="#009739" d="M19.14 12.94c.04-.3.06-.61.06-.94 0-.32-.02-.64-.07-.94l2.03-1.58c.18-.14.23-.41.12-.61l-1.92-3.32c-.12-.22-.37-.29-.59-.22l-2.39.96c-.5-.38-1.03-.7-1.62-.94l-.36-2.54c-.04-.24-.24-.41-.48-.41h-3.84c-.24 0-.43.17-.47.41l-.36 2.54c-.59.24-1.13.57-1.62.94l-2.39-.96c-.22-.08-.47 0-.59.22L2.74 8.87c-.12.21-.08.47.12.61l2.03 1.58c-.05.3-.09.63-.09.94s.02.64.07.94l-2.03 1.58c-.18.14-.23.41-.12.61l1.92 3.32c.12.22.37.29.59.22l2.39-.96c.5.38 1.03.7 1.62.94l.36 2.54c.05.24.24.41.48.41h3.84c.24 0 .44-.17.47-.41l.36-2.54c.59-.24 1.13-.56 1.62-.94l2.39.96c.22.08.47 0 .59-.22l1.92-3.32c.12-.22.07-.47-.12-.61l-2.01-1.58zM12 15.6c-1.98 0-3.6-1.62-3.6-3.6s1.62-3.6 3.6-3.6 3.6 1.62 3.6 3.6-1.62 3.6-3.6 3.6z"/>
  </symbol>

  <!-- Icône Recherche - Loupe avec les couleurs IFN -->
  <symbol id="ifn-icon-search" viewBox="0 0 24 24">
    <path fill="#F77F00" d="M15.5 14h-.79l-.28-.27C15.41 12.59 16 11.11 16 9.5 16 5.91 13.09 3 9.5 3S3 5.91 3 9.5 5.91 16 9.5 16c1.61 0 3.09-.59 4.23-1.57l.27.28v.79l5 4.99L20.49 19l-4.99-5zm-6 0C7.01 14 5 11.99 5 9.5S7.01 5 9.5 5 14 7.01 14 9.5 11.99 14 9.5 14z"/>
  </symbol>

  <!-- Icône Téléchargement - Flèche descendante avec les couleurs IFN -->
  <symbol id="ifn-icon-download" viewBox="0 0 24 24">
    <path fill="#009739" d="M19 9h-4V3H9v6H5l7 7 7-7zM5 18v2h14v-2H5z"/>
  </symbol>

  <!-- Icône Upload - Flèche montante avec les couleurs IFN -->
  <symbol id="ifn-icon-upload" viewBox="0 0 24 24">
    <path fill="#F77F00" d="M9 16h6v-6h4l-7-7-7 7h4v6zm-4 2h14v2H5v-2z"/>
  </symbol>

  <!-- Icône Ajouter - Plus avec les couleurs IFN -->
  <symbol id="ifn-icon-add" viewBox="0 0 24 24">
    <path fill="#009739" d="M19 13h-6v6h-2v-6H5v-2h6V5h2v6h6v2z"/>
  </symbol>

  <!-- Icône Supprimer - Poubelle avec les couleurs IFN -->
  <symbol id="ifn-icon-delete" viewBox="0 0 24 24">
    <path fill="#F77F00" d="M6 19c0 1.1.9 2 2 2h8c1.1 0 2-.9 2-2V7H6v12zM19 4h-3.5l-1-1h-5l-1 1H5v2h14V4z"/>
  </symbol>

  <!-- Icône Modifier - Crayon avec les couleurs IFN -->
  <symbol id="ifn-icon-edit" viewBox="0 0 24 24">
    <path fill="#009739" d="M3 17.25V21h3.75L17.81 9.94l-3.75-3.75L3 17.25zM20.71 7.04c.39-.39.39-1.02 0-1.41l-2.34-2.34c-.39-.39-1.02-.39-1.41 0l-1.83 1.83 3.75 3.75 1.83-1.83z"/>
  </symbol>

  <!-- Icône Voir - Œil avec les couleurs IFN -->
  <symbol id="ifn-icon-view" viewBox="0 0 24 24">
    <path fill="#F77F00" d="M12 4.5C7 4.5 2.73 7.61 1 12c1.73 4.39 6 7.5 11 7.5s9.27-3.11 11-7.5c-1.73-4.39-6-7.5-11-7.5zM12 17c-2.76 0-5-2.24-5-5s2.24-5 5-5 5 2.24 5 5-2.24 5-5 5zm0-8c-1.66 0-3 1.34-3 3s1.34 3 3 3 3-1.34 3-3-1.34-3-3-3z"/>
  </symbol>

  <!-- Icône Synchronisation - Flèches circulaires avec les couleurs IFN -->
  <symbol id="ifn-icon-sync" viewBox="0 0 24 24">
    <path fill="#009739" d="M12 4V1L8 5l4 4V6c3.31 0 6 2.69 6 6 0 1.01-.25 1.97-.7 2.8l1.46 1.46C19.54 15.03 20 13.57 20 12c0-4.42-3.58-8-8-8zm0 14c-3.31 0-6-2.69-6-6 0-1.01.25-1.97.7-2.8L5.24 7.74C4.46 8.97 4 10.43 4 12c0 4.42 3.58 8 8 8v3l4-4-4-4v3z"/>
  </symbol>

  <!-- Icône Hors ligne - Wifi avec barre avec les couleurs IFN -->
  <symbol id="ifn-icon-offline" viewBox="0 0 24 24">
    <path fill="#F77F00" d="M1 9l2 2c4.97-4.97 13.03-4.97 18 0l2-2C16.93 2.93 7.07 2.93 1 9zm8 8l3 3 3-3c-1.65-1.66-4.34-1.66-6 0zm-4-4l2 2c2.76-2.76 7.24-2.76 10 0l2-2C15.14 9.14 8.87 9.14 5 13z"/>
    <line stroke="#F77F00" stroke-width="2" x1="1" y1="1" x2="23" y2="23"/>
  </symbol>

  <!-- Icône En ligne - Wifi complet avec les couleurs IFN -->
  <symbol id="ifn-icon-online" viewBox="0 0 24 24">
    <path fill="#009739" d="M1 9l2 2c4.97-4.97 13.03-4.97 18 0l2-2C16.93 2.93 7.07 2.93 1 9zm8 8l3 3 3-3c-1.65-1.66-4.34-1.66-6 0zm-4-4l2 2c2.76-2.76 7.24-2.76 10 0l2-2C15.14 9.14 8.87 9.14 5 13z"/>
  </symbol>

  <!-- Icône QR Code - Carré avec pattern avec les couleurs IFN -->
  <symbol id="ifn-icon-qrcode" viewBox="0 0 24 24">
    <rect fill="#F77F00" x="3" y="3" width="6" height="6"/>
    <rect fill="#FFFFFF" x="4" y="4" width="2" height="2"/>
    <rect fill="#009739" x="15" y="3" width="6" height="6"/>
    <rect fill="#FFFFFF" x="16" y="4" width="2" height="2"/>
    <rect fill="#F77F00" x="3" y="15" width="6" height="6"/>
    <rect fill="#FFFFFF" x="4" y="16" width="2" height="2"/>
    <rect fill="#009739" x="11" y="3" width="2" height="2"/>
    <rect fill="#F77F00" x="14" y="6" width="2" height="2"/>
    <rect fill="#009739" x="3" y="11" width="2" height="2"/>
    <rect fill="#F77F00" x="6" y="11" width="2" height="2"/>
    <rect fill="#009739" x="11" y="14" width="2" height="2"/>
    <rect fill="#F77F00" x="14" y="14" width="2" height="2"/>
    <rect fill="#009739" x="11" y="17" width="2" height="2"/>
    <rect fill="#F77F00" x="17" y="17" width="2" height="2"/>
    <rect fill="#009739" x="17" y="11" width="2" height="2"/>
    <rect fill="#F77F00" x="11" y="11" width="2" height="2"/>
  </symbol>

  <!-- Icône Profil - Personne avec les couleurs IFN -->
  <symbol id="ifn-icon-profile" viewBox="0 0 24 24">
    <path fill="#009739" d="M12 12c2.21 0 4-1.79 4-4s-1.79-4-4-4-4 1.79-4 4 1.79 4 4 4zm0 2c-2.67 0-8 1.34-8 4v2h16v-2c0-2.66-5.33-4-8-4z"/>
  </symbol>

  <!-- Icône Aide - Point d'interrogation avec les couleurs IFN -->
  <symbol id="ifn-icon-help" viewBox="0 0 24 24">
    <path fill="#F77F00" d="M12 2C6.48 2 2 6.48 2 12s4.48 10 10 10 10-4.48 10-10S17.52 2 12 2zm1 17h-2v-2h2v2zm2.07-7.75l-.9.92C13.45 12.9 13 13.5 13 15h-2v-.5c0-1.1.45-2.1 1.17-2.83l1.24-1.26c.37-.36.59-.86.59-1.41 0-1.1-.9-2-2-2s-2 .9-2 2H8c0-2.21 1.79-4 4-4s4 1.79 4 4c0 .88-.36 1.68-.93 2.25z"/>
  </symbol>

  <!-- Icône Statistiques - Graphique avec les couleurs IFN -->
  <symbol id="ifn-icon-stats" viewBox="0 0 24 24">
    <rect fill="#009739" x="4" y="11" width="4" height="11"/>
    <rect fill="#F77F00" x="10" y="7" width="4" height="15"/>
    <rect fill="#009739" x="16" y="3" width="4" height="19"/>
  </symbol>

  <!-- Icône Calendrier - Date avec les couleurs IFN -->
  <symbol id="ifn-icon-calendar" viewBox="0 0 24 24">
    <path fill="#F77F00" d="M19 3h-1V1h-2v2H8V1H6v2H5c-1.11 0-1.99.9-1.99 2L3 19c0 1.1.89 2 2 2h14c1.1 0 2-.9 2-2V5c0-1.1-.9-2-2-2zm0 16H5V8h14v11zM7 10h5v5H7z"/>
  </symbol>

  <!-- Icône Temps - Horloge avec les couleurs IFN -->
  <symbol id="ifn-icon-time" viewBox="0 0 24 24">
    <circle fill="#009739" cx="12" cy="12" r="10"/>
    <path fill="#FFFFFF" d="M12 6v6l4 2"/>
    <circle fill="#FFFFFF" cx="12" cy="12" r="2"/>
  </symbol>

  <!-- Icône Succès - Check avec les couleurs IFN -->
  <symbol id="ifn-icon-success" viewBox="0 0 24 24">
    <circle fill="#009739" cx="12" cy="12" r="10"/>
    <path fill="#FFFFFF" d="M9 16.17L4.83 12l-1.42 1.41L9 19 21 7l-1.41-1.41z"/>
  </symbol>

  <!-- Icône Erreur - X avec les couleurs IFN -->
  <symbol id="ifn-icon-error" viewBox="0 0 24 24">
    <circle fill="#F77F00" cx="12" cy="12" r="10"/>
    <path fill="#FFFFFF" d="M19 6.41L17.59 5 12 10.59 6.41 5 5 6.41 10.59 12 5 17.59 6.41 19 12 13.41 17.59 19 19 17.59 13.41 12z"/>
  </symbol>

  <!-- Icône Avertissement - Triangle avec les couleurs IFN -->
  <symbol id="ifn-icon-warning" viewBox="0 0 24 24">
    <path fill="#F77F00" d="M1 21h22L12 2 1 21zm12-3h-2v-2h2v2zm0-4h-2v-4h2v4z"/>
  </symbol>

  <!-- Icône Information - I avec les couleurs IFN -->
  <symbol id="ifn-icon-info" viewBox="0 0 24 24">
    <circle fill="#009739" cx="12" cy="12" r="10"/>
    <path fill="#FFFFFF" d="M11 7h2v2h-2zm0 4h2v6h-2z"/>
  </symbol>

</svg>